# xmcd
#
# Track frame offsets: 
#        150
#        17972
#        31557
#        47350
#        68015
#        91032
#        108262
#        131687
#        147737
#        161612
#        182512
#        201460
#        214605
#        234427
#        254885
#        282522
#
# Disc length: 4139 seconds
#
# Revision: 4
# Processed by: cddbd v1.4PL0 Copyright (c) Steve Scherf et al.
# Submitted via: ExactAudioCopy v0.90b4
#
DISCID=e4102910
DTITLE=Mojo Bluesband - The Wild Taste Of Chicago
DYEAR=1900
DGENRE=Blues
TTITLE0=Accordion Boogie
TTITLE1=Dancin' With Y'All
TTITLE2=Let Me Love You
TTITLE3=Lonely Man
TTITLE4=Just Sitting Here
TTITLE5=Rather Be Lonesome
TTITLE6=Please, Mr. Jailer
TTITLE7=Living In Paradise
TTITLE8=The Reedman's Boogie
TTITLE9=Enough Love
TTITLE10=This Little Voice
TTITLE11=Curly Head Woman
TTITLE12=Just a Poor Boy
TTITLE13=The Wild Taste Of Chicago
TTITLE14=Love My Baby
TTITLE15=Good Bye Chicago
EXTD=
EXTT0=
EXTT1=
EXTT2=
EXTT3=
EXTT4=
EXTT5=
EXTT6=
EXTT7=
EXTT8=
EXTT9=
EXTT10=
EXTT11=
EXTT12=
EXTT13=
EXTT14=
EXTT15=
PLAYORDER=
